<svg xmlns="http://www.w3.org/2000/svg" width="51.197" height="54.617" viewBox="0 0 51.197 54.617">
  <g id="Group_18" data-name="Group 18" transform="translate(0 0)">
    <g id="Group_17" data-name="Group 17">
      <path id="Path_13" data-name="Path 13" d="M66.776,12.051,41.978.079a.8.8,0,0,0-.7,0l-24.8,11.972a.8.8,0,0,0-.452.72V41.845a.8.8,0,0,0,.452.72l24.8,11.972a.8.8,0,0,0,.7,0l24.8-11.972a.8.8,0,0,0,.452-.72V12.771A.8.8,0,0,0,66.776,12.051ZM41.63,1.688,64.588,12.771l-6.655,3.213A.793.793,0,0,0,57.8,15.9L35,4.891ZM33.189,5.8,56.114,16.862l-4.7,2.267L28.5,8.067ZM56.65,18.38v8.379l-4.386,2.117V20.5Zm8.979,22.963-23.2,11.2v-27.3l5.533-2.671a.8.8,0,1,0-.7-1.441L41.63,23.854l-2.218-1.071a.8.8,0,0,0-.7,1.441l2.114,1.021v27.3l-23.2-11.2v-27.3L35.3,22.574a.8.8,0,0,0,.7-1.441L18.672,12.771,26.62,8.934l24.033,11.6.011.014v9.6a.8.8,0,0,0,1.148.72l5.986-2.89a.8.8,0,0,0,.452-.72V17.608l7.379-3.562v27.3Z" transform="translate(-16.032 0.001)" fill="#fff"/>
    </g>
  </g>
</svg>
