<svg xmlns="http://www.w3.org/2000/svg" width="53.425" height="53.313" viewBox="0 0 53.425 53.313">
  <path id="money_2_" data-name="money (2)" d="M50.42,26.811V16.193a4.457,4.457,0,0,0-4.452-4.452H44.458l.334-1.162a3.56,3.56,0,0,0-2.437-4.408l-10.1-2.908a.89.89,0,0,0-.493,1.711L38.111,6.8a5.44,5.44,0,0,0-.02,4.939H19.478V4.729a.89.89,0,0,0-1.781,0v7.012H14.692V4.729a.89.89,0,1,0-1.781,0v7.012h-3.9V4.062A1.783,1.783,0,0,1,10.8,2.281H25.822A1.783,1.783,0,0,1,27.6,4.062v4.9a.89.89,0,0,0,1.781,0v-4.9A3.566,3.566,0,0,0,25.822.5H10.8A3.566,3.566,0,0,0,7.235,4.062v7.68H4.452A4.457,4.457,0,0,0,0,16.193V49.361a4.457,4.457,0,0,0,4.452,4.452H45.967a4.457,4.457,0,0,0,4.452-4.452V42.85a.89.89,0,1,0-1.781,0v6.511a2.674,2.674,0,0,1-2.671,2.671H4.452a2.674,2.674,0,0,1-2.671-2.671V16.193a2.674,2.674,0,0,1,2.671-2.671H45.967a2.674,2.674,0,0,1,2.671,2.671V26.767H41.293a3.566,3.566,0,0,0-3.562,3.562v4.9a3.566,3.566,0,0,0,3.562,3.562h8.573a3.566,3.566,0,0,0,3.559-3.562v-4.9A3.567,3.567,0,0,0,50.42,26.811ZM39.871,7.31l1.992.573a1.78,1.78,0,0,1,1.219,2.2l-.476,1.655h-2.38A3.667,3.667,0,0,1,39.871,7.31ZM51.644,35.226a1.783,1.783,0,0,1-1.781,1.781h-8.57a1.783,1.783,0,0,1-1.781-1.781v-4.9a1.783,1.783,0,0,1,1.781-1.781h8.57a1.783,1.783,0,0,1,1.781,1.781Zm-7.012-2.449a.89.89,0,0,1-.89.89H42.406a.89.89,0,1,1,0-1.781h1.336A.89.89,0,0,1,44.632,32.777Z" transform="translate(0 -0.5)" fill="#fff"/>
</svg>
