<svg id="ribbon" xmlns="http://www.w3.org/2000/svg" width="63.413" height="48.318" viewBox="0 0 63.413 48.318">
  <g id="Group_24" data-name="Group 24" transform="translate(0 0)">
    <g id="Group_23" data-name="Group 23">
      <path id="Path_16" data-name="Path 16" d="M60.569,78.933l2.018-3.4.014-.095a4.672,4.672,0,0,0,.812-2.194c0-1.11-.582-1.936-2.41-1.936H52.878q.19-.826.325-1.679a21.747,21.747,0,1,0-42.993,0q.122.84.325,1.679H2.41c-1.828,0-2.41.826-2.41,1.936a4.672,4.672,0,0,0,.812,2.194L2.83,78.906.867,82.4a4.672,4.672,0,0,0-.812,2.194c0,1.11.582,1.936,2.41,1.936H8.707v2.708a3.547,3.547,0,0,0,.948,2.546l.068.081a3.548,3.548,0,0,0,2.519,1.043H51.213a3.561,3.561,0,0,0,3.534-3.575V86.624h6.242c1.828,0,2.41-.826,2.41-1.936a4.672,4.672,0,0,0-.812-2.194Zm-42.587-26.3h0A19.454,19.454,0,0,1,50.535,71.309H48.653q.23-.8.393-1.611a17.6,17.6,0,1,0-34.638,0q.162.812.393,1.611H12.918A19.486,19.486,0,0,1,17.983,52.636Zm1.435,19.377-.081-.081a2.411,2.411,0,0,0-1.625-.636h-.5a15.278,15.278,0,0,1-.542-2.031,15.322,15.322,0,1,1,30.1,0,15.278,15.278,0,0,1-.542,2.031h-.5a2.411,2.411,0,0,0-1.625.636l-.081.081a2.41,2.41,0,0,0-.7,1.706v2.559H20.136V73.72A2.41,2.41,0,0,0,19.418,72.013Zm-9.7,5.308A3.548,3.548,0,0,0,8.707,79.84v4.414H2.478c.095-.2.244-.46.366-.664l2.343-4.062a1.151,1.151,0,0,0,0-1.165L2.844,74.3c-.122-.217-.271-.46-.366-.664H17.793a.108.108,0,0,1,0,.068v2.559H12.241a3.548,3.548,0,0,0-2.505,1.043ZM52.445,89.332A1.259,1.259,0,0,1,51.2,90.578H12.241a1.179,1.179,0,0,1-1.205-1.205V79.894a1.246,1.246,0,0,1,1.246-1.246H51.213a1.248,1.248,0,0,1,1.246,1.246Zm2.3-5.091v-4.4A3.56,3.56,0,0,0,51.2,76.279H45.634V73.72a.108.108,0,0,1,0-.068H60.976c-.108.176-.244.42-.366.636h-.041l-2.343,4.062a1.151,1.151,0,0,0,0,1.165l2.343,4.062c.122.217.271.46.366.664H54.747Z" transform="translate(0 -44.589)" fill="#fff"/>
    </g>
  </g>
  <g id="Group_26" data-name="Group 26" transform="translate(23.362 11.415)">
    <g id="Group_25" data-name="Group 25">
      <path id="Path_17" data-name="Path 17" d="M154.434,117.579a1.151,1.151,0,0,0-.588-.322l-4.279-.907-2.18-3.751a1.151,1.151,0,0,0-1.991,0l-2.18,3.792-4.279.907a1.151,1.151,0,0,0-.623,1.9l2.925,3.277-.46,4.347a1.151,1.151,0,0,0,1.611,1.178l3.995-1.855,3.94,1.76a1.151,1.151,0,0,0,1.666-1.151l-.46-4.347,2.884-3.2A1.151,1.151,0,0,0,154.434,117.579Zm-4.975,3.727a1.151,1.151,0,0,0-.284.894l.311,2.871-2.627-1.178a1.152,1.152,0,0,0-.934,0L143.3,125.07l.311-2.871a1.151,1.151,0,0,0-.339-.948l-1.882-2.085,2.789-.582a1.151,1.151,0,0,0,.853-.569l1.354-2.451,1.435,2.451a1.151,1.151,0,0,0,.758.555l2.817.6Z" transform="translate(-138.02 -112.026)" fill="#fff"/>
    </g>
  </g>
</svg>
